<svg xmlns="http://www.w3.org/2000/svg" viewBox="-0.5 -0.5 16 16" id="Java--Streamline-Font-Awesome.svg" height="16" width="16"><desc>Java Streamline Icon: https://streamlinehq.com</desc><!--! Font Awesome Free 6.5.2 by @fontawesome - https://fontawesome.com License - https://fontawesome.com/license/free (Icons: CC BY 4.0, Fonts: SIL OFL 1.1, Code: MIT License) Copyright 2024 Fonticons, Inc.--><path d="M9.9703203125 9.13353515625c0.28136328125 -0.19236328125000002 0.67182421875 -0.3588828125 0.67182421875 -0.3588828125s-1.11109765625 0.20097265625 -2.216453125 0.29284765625c-1.35226953125 0.11196875 -2.8050234375 0.13493750000000002 -3.53426953125 0.03732421875 -1.72550390625 -0.22968359375 0.94744921875 -0.8641875 0.94744921875 -0.8641875s-1.036453125 -0.06890625 -2.31407421875 0.5455c-1.50730078125 0.72924609375 3.732375 1.0622890625 6.4455234375 0.3473984375Zm-2.4518828125 -0.921609375c-0.5455 -1.22594140625 -2.38584765625 -2.3025859375 0 -4.186C10.49457421875 1.6774023437499999 8.9683203125 0.15 8.9683203125 0.15c0.61727734375 2.42604296875 -2.17051953125 3.1610312499999997 -3.1782578125 4.6683359375 -0.6861835937499999 1.0307109374999999 0.3359140625 2.1360664062500003 1.728375 3.39358984375ZM10.808667968750001 3.153125c0.00287109375 0 -5.03008984375 1.2575234375 -2.627015625 4.02521875 0.7091484375 0.81537890625 -0.18662109375 1.5503710937500002 -0.18662109375 1.5503710937500002s1.80015234375 -0.93022265625 0.9732890625 -2.093c-0.7723125 -1.0852578124999999 -1.36375 -1.625015625 1.84034765625 -3.4825898437500005Zm-0.17513671875 7.76620703125c-0.0156875 0.02735546875 -0.03500390625 0.05246484375 -0.05741796875 0.07464453125 3.6835625 -0.9675429687500001 2.32842578125 -3.41368359375 0.56846875 -2.79353515625 -0.09505468749999998 0.03492578125 -0.1771875 0.09803124999999999 -0.23542578125000002 0.180875 0.10276953125 -0.0371953125 0.20838671874999998 -0.066 0.3158125 -0.0861328125 0.89002734375 -0.1866171875 2.1676484375 1.1914882812499998 -0.5914375000000001 2.6241484375Zm1.3539921874999998 1.78866796875s0.41630078125 0.34165234375 -0.4565 0.60866015625c-1.66233984375 0.5024375 -6.9135 0.6546015625 -8.37199609375 0.02009765625 -0.5254023437500001 -0.2268125 0.4593671875 -0.5455 0.76944140625 -0.61153515625 0.32155859374999995 -0.06890234375 0.50817578125 -0.05741796875 0.50817578125 -0.05741796875 -0.58282421875 -0.41056250000000005 -3.7696953124999997 0.8067656249999999 -1.6192734375 1.1541640625 5.863843749999999 0.9531914062500001 10.6918125 -0.4277890625 9.17015234375 -1.1139687500000002Zm-6.41853125 -1.1886171875c-2.2595234375 0.63162890625 1.3752343750000002 1.93508984375 4.25203125 0.70340625 -0.2805703125 -0.109 -0.5514140624999999 -0.24154296875000003 -0.80963671875 -0.39620703124999995 -1.2833632812500002 0.24404296874999998 -1.8776718749999999 0.261265625 -3.0433203125 0.12919921875 -0.9618046874999999 -0.1091015625 -0.39907421875000004 -0.43640234375000003 -0.39907421875000004 -0.43640234375000003Zm5.16215625 2.7906640625000003c-2.25951953125 0.42491796875 -5.047316406249999 0.37610937499999997 -6.698171875 0.103359375 0 -0.00287109375 0.33878515625 0.27849218750000004 2.0786445312499997 0.3904609375 2.64711328125 0.16939453125 6.71252734375 -0.09474218749999999 6.8072734375 -1.3465234375 0 0 -0.18375 0.47372265625 -2.18774609375 0.852703125Zm-1.25178125 -4.02521875c-1.6996640625000001 0.32730078125 -2.6844374999999996 0.3186875 -3.9276015625 0.18948828125 -0.9618046874999999 -0.10048828124999999 -0.33304296875 -0.56559765625 -0.33304296875 -0.56559765625 -2.492078125 0.82686328125 1.38384765625 1.762828125 4.8664375 0.7436015625000001 -0.22508203125 -0.07947656250000001 -0.4313203125 -0.2045859375 -0.60579296875 -0.3674921875Z" stroke-width="1"></path></svg>