<svg xmlns="http://www.w3.org/2000/svg" viewBox="-0.5 -0.5 16 16" id="Python--Streamline-Font-Awesome.svg" height="16" width="16"><desc>Python Streamline Icon: https://streamlinehq.com</desc><!--! Font Awesome Free 6.5.2 by @fontawesome - https://fontawesome.com License - https://fontawesome.com/license/free (Icons: CC BY 4.0, Fonts: SIL OFL 1.1, Code: MIT License) Copyright 2024 Fonticons, Inc.--><path d="M14.580485491071428 5.678758928571429c-0.25264955357142854 -1.013869419642857 -0.7316953125 -1.778377232142857 -1.752127232142857 -1.778377232142857h-1.3157377232142857v1.5552589285714287c0 1.2074598214285714 -1.0237131696428572 2.2246138392857144 -2.1917979910714283 2.2246138392857144H5.816564732142856c-0.9580915178571427 0 -1.752127232142857 0.8202823660714285 -1.752127232142857 1.7816584821428572v3.3401953124999997c0 0.9515323660714285 0.8268482142857142 1.509324776785714 1.752127232142857 1.7816584821428572 1.109025669642857 0.32483370535714284 2.1753950892857143 0.38389285714285715 3.5042578124999997 0 0.8826261160714286 -0.25592745535714284 1.752127232142857 -0.7710669642857142 1.752127232142857 -1.7816584821428572v-1.335421875H7.5719732142857135v-0.4462332589285714h5.256385044642857c1.020431919642857 0 1.397765625 -0.7120078125 1.752127232142857 -1.778377232142857 0.36748660714285714 -1.099181919642857 0.3510803571428571 -2.155707589285714 0 -3.5633169642857143ZM9.54065625 12.355875c0.3642087053571429 0 0.6595111607142856 0.29858370535714285 0.6595111607142856 0.6660703124999999 0 0.37076785714285715 -0.29530245535714283 0.6693515624999999 -0.6595111607142856 0.6693515624999999 -0.36092410714285716 0 -0.6595078124999999 -0.3018616071428571 -0.6595078124999999 -0.6693515624999999 0.00328125 -0.37076785714285715 0.29858370535714285 -0.6660703124999999 0.6595078124999999 -0.6660703124999999ZM5.655790178571428 7.240580357142857H9.160044642857143c0.9744977678571428 0 1.752127232142857 -0.8038794642857142 1.752127232142857 -1.7816584821428572V2.1154453125c0 -0.9515323660714285 -0.8005982142857143 -1.6635368303571427 -1.752127232142857 -1.824314732142857 -1.1746473214285713 -0.19358705357142855 -2.451010044642857 -0.18374330357142857 -3.504254464285714 0.00328125 -1.4830747767857142 0.2624899553571428 -1.752127232142857 0.8104419642857144 -1.752127232142857 1.824314732142857v1.335421875h3.507535714285714v0.4462332589285714H2.5879252232142855c-1.020431919642857 0 -1.9129017857142856 0.6135736607142857 -2.1917979910714283 1.778377232142857 -0.32155245535714283 1.3354252232142858 -0.33467745535714283 2.1688325892857145 0 3.5633169642857143 0.24936495535714287 1.036838169642857 0.8432511160714284 1.778377232142857 1.8636863839285716 1.778377232142857h1.2041752232142857v-1.6011964285714286c0 -1.1582410714285714 1.0007477678571428 -2.178676339285714 2.191801339285714 -2.178676339285714Zm-0.21983705357142858 -4.678901785714285c-0.3642053571428571 0 -0.6595078124999999 -0.29858370535714285 -0.6595078124999999 -0.6660703124999999 0.00328125 -0.37076785714285715 0.29530245535714283 -0.6693515624999999 0.6595078124999999 -0.6693515624999999 0.36092410714285716 0 0.6595078124999999 0.3018616071428571 0.6595078124999999 0.6693515624999999s-0.29530245535714283 0.6660703124999999 -0.6595078124999999 0.6660703124999999Z" stroke-width="1"></path></svg>